{
  "accessors": [
    {
      "bufferView": 2,
      "componentType": 5126,
      "count": 108,
      "max": [
        0.17140363156795502,
        1.1267826557159424,
        0.17404597997665405
      ],
      "min": [
        -0.17140473425388336,
        -0.47593221068382263,
        -0.1740502417087555
      ],
      "type": "VEC3"
    },
    {
      "bufferView": 2,
      "byteOffset": 1296,
      "componentType": 5126,
      "count": 108,
      "max": [
        1.0,
        1.0,
        0.9848078489303589
      ],
      "min": [
        -1.0,
        -1.0,
        -0.9848077297210693
      ],
      "type": "VEC3"
    },
    {
      "bufferView": 1,
      "componentType": 5126,
      "count": 108,
      "max": [
        1.0,
        1.0
      ],
      "min": [
        -1.862645149230957e-07,
        0.01000000536441803
      ],
      "type": "VEC2"
    },
    {
      "bufferView": 0,
      "componentType": 5125,
      "count": 204,
      "type": "SCALAR"
    },
    {
      "bufferView": 2,
      "byteOffset": 2592,
      "componentType": 5126,
      "count": 108,
      "max": [
        0.17140363156795502,
        1.1267826557159424,
        0.17404597997665405
      ],
      "min": [
        -0.17140473425388336,
        -0.47593221068382263,
        -0.1740502417087555
      ],
      "type": "VEC3"
    },
    {
      "bufferView": 2,
      "byteOffset": 3888,
      "componentType": 5126,
      "count": 108,
      "max": [
        1.0,
        1.0,
        0.9848078489303589
      ],
      "min": [
        -1.0,
        -1.0,
        -0.9848077297210693
      ],
      "type": "VEC3"
    },
    {
      "bufferView": 1,
      "byteOffset": 864,
      "componentType": 5126,
      "count": 108,
      "max": [
        1.0,
        1.0
      ],
      "min": [
        -1.862645149230957e-07,
        0.01000000536441803
      ],
      "type": "VEC2"
    },
    {
      "bufferView": 0,
      "byteOffset": 816,
      "componentType": 5125,
      "count": 204,
      "type": "SCALAR"
    },
    {
      "bufferView": 2,
      "byteOffset": 5184,
      "componentType": 5126,
      "count": 108,
      "max": [
        0.17140363156795502,
        1.1267826557159424,
        0.17404597997665405
      ],
      "min": [
        -0.17140473425388336,
        -0.47593221068382263,
        -0.1740502417087555
      ],
      "type": "VEC3"
    },
    {
      "bufferView": 2,
      "byteOffset": 6480,
      "componentType": 5126,
      "count": 108,
      "max": [
        1.0,
        1.0,
        0.9848078489303589
      ],
      "min": [
        -1.0,
        -1.0,
        -0.9848077297210693
      ],
      "type": "VEC3"
    },
    {
      "bufferView": 1,
      "byteOffset": 1728,
      "componentType": 5126,
      "count": 108,
      "max": [
        1.0,
        1.0
      ],
      "min": [
        -1.862645149230957e-07,
        0.01000000536441803
      ],
      "type": "VEC2"
    },
    {
      "bufferView": 0,
      "byteOffset": 1632,
      "componentType": 5125,
      "count": 204,
      "type": "SCALAR"
    },
    {
      "bufferView": 2,
      "byteOffset": 7776,
      "componentType": 5126,
      "count": 108,
      "max": [
        0.17140363156795502,
        1.1267826557159424,
        0.17404597997665405
      ],
      "min": [
        -0.17140473425388336,
        -0.47593221068382263,
        -0.1740502417087555
      ],
      "type": "VEC3"
    },
    {
      "bufferView": 2,
      "byteOffset": 9072,
      "componentType": 5126,
      "count": 108,
      "max": [
        1.0,
        1.0,
        0.9848078489303589
      ],
      "min": [
        -1.0,
        -1.0,
        -0.9848077297210693
      ],
      "type": "VEC3"
    },
    {
      "bufferView": 1,
      "byteOffset": 2592,
      "componentType": 5126,
      "count": 108,
      "max": [
        1.0,
        1.0
      ],
      "min": [
        -1.862645149230957e-07,
        0.01000000536441803
      ],
      "type": "VEC2"
    },
    {
      "bufferView": 0,
      "byteOffset": 2448,
      "componentType": 5125,
      "count": 204,
      "type": "SCALAR"
    },
    {
      "bufferView": 2,
      "byteOffset": 10368,
      "componentType": 5126,
      "count": 24,
      "max": [
        5.5377516746521,
        -14.304765701293945,
        2.988558769226074
      ],
      "min": [
        -5.436160564422607,
        -14.641474723815918,
        0.9641019105911255
      ],
      "type": "VEC3"
    },
    {
      "bufferView": 2,
      "byteOffset": 10656,
      "componentType": 5126,
      "count": 24,
      "max": [
        1.0,
        1.0,
        1.0
      ],
      "min": [
        -1.0,
        -1.0,
        -1.0
      ],
      "type": "VEC3"
    },
    {
      "bufferView": 1,
      "byteOffset": 3456,
      "componentType": 5126,
      "count": 24,
      "max": [
        0.875,
        1.0
      ],
      "min": [
        0.125,
        0.0
      ],
      "type": "VEC2"
    },
    {
      "bufferView": 0,
      "byteOffset": 3264,
      "componentType": 5125,
      "count": 36,
      "type": "SCALAR"
    },
    {
      "bufferView": 2,
      "byteOffset": 10944,
      "componentType": 5126,
      "count": 48,
      "max": [
        -0.8372306227684021,
        2.4666595458984375,
        1.0
      ],
      "min": [
        -1.0,
        -10.147939682006836,
        -1.0
      ],
      "type": "VEC3"
    },
    {
      "bufferView": 2,
      "byteOffset": 11520,
      "componentType": 5126,
      "count": 48,
      "max": [
        1.0,
        1.0,
        1.0
      ],
      "min": [
        -1.0,
        -1.0,
        -1.0
      ],
      "type": "VEC3"
    },
    {
      "bufferView": 1,
      "byteOffset": 3648,
      "componentType": 5126,
      "count": 48,
      "max": [
        0.875,
        1.0
      ],
      "min": [
        0.125,
        0.0
      ],
      "type": "VEC2"
    },
    {
      "bufferView": 0,
      "byteOffset": 3408,
      "componentType": 5125,
      "count": 72,
      "type": "SCALAR"
    },
    {
      "bufferView": 2,
      "byteOffset": 12096,
      "componentType": 5126,
      "count": 48,
      "max": [
        -0.8372306823730469,
        1.3811544179916382,
        1.0
      ],
      "min": [
        -7.012596130371094,
        -10.147939682006836,
        -1.0000007152557373
      ],
      "type": "VEC3"
    },
    {
      "bufferView": 2,
      "byteOffset": 12672,
      "componentType": 5126,
      "count": 48,
      "max": [
        0.8866663575172424,
        1.0,
        1.0
      ],
      "min": [
        -0.8866663575172424,
        -1.0,
        -1.0
      ],
      "type": "VEC3"
    },
    {
      "bufferView": 1,
      "byteOffset": 4032,
      "componentType": 5126,
      "count": 48,
      "max": [
        0.875,
        1.0
      ],
      "min": [
        0.125,
        0.0
      ],
      "type": "VEC2"
    },
    {
      "bufferView": 0,
      "byteOffset": 3696,
      "componentType": 5125,
      "count": 72,
      "type": "SCALAR"
    },
    {
      "bufferView": 2,
      "byteOffset": 13248,
      "componentType": 5126,
      "count": 24,
      "max": [
        -0.6557679176330566,
        0.10851740837097168,
        2.2923102378845215
      ],
      "min": [
        -1.0,
        -1.0,
        -1.8275752067565918
      ],
      "type": "VEC3"
    },
    {
      "bufferView": 2,
      "byteOffset": 13536,
      "componentType": 5126,
      "count": 24,
      "max": [
        1.0,
        1.0,
        1.0
      ],
      "min": [
        -1.0,
        -1.0,
        -1.0
      ],
      "type": "VEC3"
    },
    {
      "bufferView": 1,
      "byteOffset": 4416,
      "componentType": 5126,
      "count": 24,
      "max": [
        0.875,
        1.0
      ],
      "min": [
        0.125,
        0.0
      ],
      "type": "VEC2"
    },
    {
      "bufferView": 0,
      "byteOffset": 3984,
      "componentType": 5125,
      "count": 36,
      "type": "SCALAR"
    },
    {
      "bufferView": 2,
      "byteOffset": 13824,
      "componentType": 5126,
      "count": 24,
      "max": [
        1.269941806793213,
        0.2981509268283844,
        1.0
      ],
      "min": [
        -1.3239303827285767,
        -1.0,
        -1.0
      ],
      "type": "VEC3"
    },
    {
      "bufferView": 2,
      "byteOffset": 14112,
      "componentType": 5126,
      "count": 24,
      "max": [
        0.9772624969482422,
        0.9997835159301758,
        1.0
      ],
      "min": [
        -0.9702492952346802,
        -1.0,
        -1.0
      ],
      "type": "VEC3"
    },
    {
      "bufferView": 1,
      "byteOffset": 4608,
      "componentType": 5126,
      "count": 24,
      "max": [
        0.875,
        1.0
      ],
      "min": [
        0.125,
        0.0
      ],
      "type": "VEC2"
    },
    {
      "bufferView": 0,
      "byteOffset": 4128,
      "componentType": 5125,
      "count": 36,
      "type": "SCALAR"
    },
    {
      "bufferView": 2,
      "byteOffset": 14400,
      "componentType": 5126,
      "count": 20,
      "max": [
        2.1826629638671875,
        8.041571675221348e-08,
        0.9239552617073059
      ],
      "min": [
        -1.0,
        -0.5555115938186646,
        -1.0
      ],
      "type": "VEC3"
    },
    {
      "bufferView": 2,
      "byteOffset": 14640,
      "componentType": 5126,
      "count": 20,
      "max": [
        1.0,
        1.0,
        0.9989455938339233
      ],
      "min": [
        -0.48469895124435425,
        0.0,
        -0.8746811151504517
      ],
      "type": "VEC3"
    },
    {
      "bufferView": 1,
      "byteOffset": 4800,
      "componentType": 5126,
      "count": 20,
      "max": [
        1.0,
        1.0
      ],
      "min": [
        0.0,
        0.0
      ],
      "type": "VEC2"
    },
    {
      "bufferView": 0,
      "byteOffset": 4272,
      "componentType": 5125,
      "count": 30,
      "type": "SCALAR"
    },
    {
      "bufferView": 2,
      "byteOffset": 14880,
      "componentType": 5126,
      "count": 416,
      "max": [
        2.426831007003784,
        2.3471105098724365,
        1.163309097290039
      ],
      "min": [
        -10.922243118286133,
        -1.0,
        -1.2857909202575684
      ],
      "type": "VEC3"
    },
    {
      "bufferView": 2,
      "byteOffset": 19872,
      "componentType": 5126,
      "count": 416,
      "max": [
        1.0,
        1.0,
        1.0
      ],
      "min": [
        -1.0,
        -0.9983701705932617,
        -1.0
      ],
      "type": "VEC3"
    },
    {
      "bufferView": 1,
      "byteOffset": 4960,
      "componentType": 5126,
      "count": 416,
      "max": [
        0.875,
        1.0
      ],
      "min": [
        0.125,
        0.0
      ],
      "type": "VEC2"
    },
    {
      "bufferView": 0,
      "byteOffset": 4392,
      "componentType": 5125,
      "count": 747,
      "type": "SCALAR"
    },
    {
      "bufferView": 2,
      "byteOffset": 24864,
      "componentType": 5126,
      "count": 90,
      "max": [
        0.05967136099934578,
        2.8217926025390625,
        0.05868890509009361
      ],
      "min": [
        -0.05967136099934578,
        -1.1449999809265137,
        -0.06000004708766937
      ],
      "type": "VEC3"
    },
    {
      "bufferView": 2,
      "byteOffset": 25944,
      "componentType": 5126,
      "count": 90,
      "max": [
        0.9945219159126282,
        1.0,
        1.0
      ],
      "min": [
        -0.9945219159126282,
        -1.0,
        -0.9781476855278015
      ],
      "type": "VEC3"
    },
    {
      "bufferView": 1,
      "byteOffset": 8288,
      "componentType": 5126,
      "count": 90,
      "max": [
        1.0,
        1.0
      ],
      "min": [
        4.470348358154297e-08,
        0.01524457335472107
      ],
      "type": "VEC2"
    },
    {
      "bufferView": 0,
      "byteOffset": 7380,
      "componentType": 5125,
      "count": 168,
      "type": "SCALAR"
    },
    {
      "bufferView": 2,
      "byteOffset": 27024,
      "componentType": 5126,
      "count": 303,
      "max": [
        2.497633934020996,
        8.616090774536133,
        2.49763822555542
      ],
      "min": [
        -2.4976344108581543,
        -8.20521354675293,
        -2.4976296424865723
      ],
      "type": "VEC3"
    },
    {
      "bufferView": 2,
      "byteOffset": 30660,
      "componentType": 5126,
      "count": 303,
      "max": [
        0.999173641204834,
        1.0,
        0.9991737008094788
      ],
      "min": [
        -0.9991737008094788,
        -1.0,
        -0.9991737008094788
      ],
      "type": "VEC3"
    },
    {
      "bufferView": 1,
      "byteOffset": 9008,
      "componentType": 5126,
      "count": 303,
      "max": [
        1.0,
        1.0
      ],
      "min": [
        0.0,
        0.01000000536441803
      ],
      "type": "VEC2"
    },
    {
      "bufferView": 0,
      "byteOffset": 8052,
      "componentType": 5125,
      "count": 594,
      "type": "SCALAR"
    }
  ],
  "asset": {
    "extras": {
      "author": "andy_hilaire (https://sketchfab.com/andy_hilaire)",
      "license": "CC-BY-4.0 (http://creativecommons.org/licenses/by/4.0/)",
      "source": "https://sketchfab.com/3d-models/pirate-ship-712b494468464413a5bd2332597ef840",
      "title": "Pirate Ship"
    },
    "generator": "Sketchfab-12.67.0",
    "version": "2.0"
  },
  "bufferViews": [
    {
      "buffer": 0,
      "byteLength": 10428,
      "name": "floatBufferViews",
      "target": 34963
    },
    {
      "buffer": 0,
      "byteLength": 11432,
      "byteOffset": 10428,
      "byteStride": 8,
      "name": "floatBufferViews",
      "target": 34962
    },
    {
      "buffer": 0,
      "byteLength": 34296,
      "byteOffset": 21860,
      "byteStride": 12,
      "name": "floatBufferViews",
      "target": 34962
    }
  ],
  "buffers": [
    {
      "byteLength": 56156,
      "uri": "scene.bin"
    }
  ],
  "materials": [
    {
      "doubleSided": true,
      "name": "material_0",
      "pbrMetallicRoughness": {
        "metallicFactor": 0.0,
        "roughnessFactor": 0.6
      }
    },
    {
      "doubleSided": true,
      "name": "Legs",
      "pbrMetallicRoughness": {
        "baseColorFactor": [
          0.481048,
          0.742664,
          0.650199,
          1.0
        ],
        "metallicFactor": 0.290598,
        "roughnessFactor": 0.5
      }
    },
    {
      "doubleSided": true,
      "name": "Wood_Alt",
      "pbrMetallicRoughness": {
        "baseColorFactor": [
          0.10879,
          0.0301655,
          0.00165479,
          1.0
        ],
        "metallicFactor": 0.0,
        "roughnessFactor": 0.5
      }
    },
    {
      "doubleSided": true,
      "name": "Material",
      "pbrMetallicRoughness": {
        "baseColorFactor": [
          0.8,
          0.000354435,
          0.0,
          1.0
        ],
        "metallicFactor": 0.0,
        "roughnessFactor": 0.5
      }
    },
    {
      "doubleSided": true,
      "name": "Wood",
      "pbrMetallicRoughness": {
        "baseColorFactor": [
          0.183236,
          0.0736679,
          0.0088157,
          1.0
        ],
        "metallicFactor": 0.0,
        "roughnessFactor": 0.5
      }
    }
  ],
  "meshes": [
    {
      "name": "Object_0",
      "primitives": [
        {
          "attributes": {
            "NORMAL": 1,
            "POSITION": 0,
            "TEXCOORD_0": 2
          },
          "indices": 3,
          "material": 1,
          "mode": 4
        }
      ]
    },
    {
      "name": "Object_1",
      "primitives": [
        {
          "attributes": {
            "NORMAL": 5,
            "POSITION": 4,
            "TEXCOORD_0": 6
          },
          "indices": 7,
          "material": 1,
          "mode": 4
        }
      ]
    },
    {
      "name": "Object_2",
      "primitives": [
        {
          "attributes": {
            "NORMAL": 9,
            "POSITION": 8,
            "TEXCOORD_0": 10
          },
          "indices": 11,
          "material": 1,
          "mode": 4
        }
      ]
    },
    {
      "name": "Object_3",
      "primitives": [
        {
          "attributes": {
            "NORMAL": 13,
            "POSITION": 12,
            "TEXCOORD_0": 14
          },
          "indices": 15,
          "material": 1,
          "mode": 4
        }
      ]
    },
    {
      "name": "Object_4",
      "primitives": [
        {
          "attributes": {
            "NORMAL": 17,
            "POSITION": 16,
            "TEXCOORD_0": 18
          },
          "indices": 19,
          "material": 2,
          "mode": 4
        }
      ]
    },
    {
      "name": "Object_5",
      "primitives": [
        {
          "attributes": {
            "NORMAL": 21,
            "POSITION": 20,
            "TEXCOORD_0": 22
          },
          "indices": 23,
          "material": 2,
          "mode": 4
        }
      ]
    },
    {
      "name": "Object_6",
      "primitives": [
        {
          "attributes": {
            "NORMAL": 25,
            "POSITION": 24,
            "TEXCOORD_0": 26
          },
          "indices": 27,
          "material": 2,
          "mode": 4
        }
      ]
    },
    {
      "name": "Object_7",
      "primitives": [
        {
          "attributes": {
            "NORMAL": 29,
            "POSITION": 28,
            "TEXCOORD_0": 30
          },
          "indices": 31,
          "material": 0,
          "mode": 4
        }
      ]
    },
    {
      "name": "Object_8",
      "primitives": [
        {
          "attributes": {
            "NORMAL": 33,
            "POSITION": 32,
            "TEXCOORD_0": 34
          },
          "indices": 35,
          "material": 2,
          "mode": 4
        }
      ]
    },
    {
      "name": "Object_9",
      "primitives": [
        {
          "attributes": {
            "NORMAL": 37,
            "POSITION": 36,
            "TEXCOORD_0": 38
          },
          "indices": 39,
          "material": 3,
          "mode": 4
        }
      ]
    },
    {
      "name": "Object_10",
      "primitives": [
        {
          "attributes": {
            "NORMAL": 41,
            "POSITION": 40,
            "TEXCOORD_0": 42
          },
          "indices": 43,
          "material": 4,
          "mode": 4
        }
      ]
    },
    {
      "name": "Object_11",
      "primitives": [
        {
          "attributes": {
            "NORMAL": 45,
            "POSITION": 44,
            "TEXCOORD_0": 46
          },
          "indices": 47,
          "material": 1,
          "mode": 4
        }
      ]
    },
    {
      "name": "Object_12",
      "primitives": [
        {
          "attributes": {
            "NORMAL": 49,
            "POSITION": 48,
            "TEXCOORD_0": 50
          },
          "indices": 51,
          "material": 4,
          "mode": 4
        }
      ]
    }
  ],
  "nodes": [
    {
      "children": [
        1
      ],
      "matrix": [
        -1.0,
        0.0,
        0.0,
        0.0,
        0.0,
        0.023106874898075835,
        0.9997329711914063,
        0.0,
        0.0,
        0.9997329711914063,
        -0.023106874898075835,
        0.0,
        -7.152600119297858e-06,
        -43.41023635864258,
        -6.540952205657969,
        1.0
      ],
      "name": "Sketchfab_model"
    },
    {
      "children": [
        2
      ],
      "name": "root"
    },
    {
      "children": [
        3,
        5,
        7,
        9,
        11,
        13,
        15,
        17,
        19,
        21,
        23,
        25,
        27
      ],
      "matrix": [
        1.0,
        0.0,
        0.0,
        0.0,
        0.0,
        2.220446049250313e-16,
        1.0,
        0.0,
        0.0,
        -1.0,
        2.220446049250313e-16,
        0.0,
        0.0,
        0.0,
        0.0,
        1.0
      ],
      "name": "GLTF_SceneRootNode"
    },
    {
      "children": [
        4
      ],
      "matrix": [
        0.9474642314713657,
        0.4179683596093484,
        0.0,
        0.0,
        -3.971357938361472,
        9.002402958166886,
        0.0,
        0.0,
        0.0,
        0.0,
        1.0355606079101563,
        0.0,
        4.400000095367432,
        4.400000095367432,
        1.600000023841858,
        1.0
      ],
      "name": "Legs_1_2"
    },
    {
      "mesh": 0,
      "name": "Object_4"
    },
    {
      "children": [
        6
      ],
      "matrix": [
        0.9474642070941085,
        -0.4179684148685012,
        0.0,
        0.0,
        3.971358463410486,
        9.002402726544537,
        0.0,
        0.0,
        0.0,
        0.0,
        1.0355606079101563,
        0.0,
        -4.400000095367432,
        4.400000095367432,
        1.600000023841858,
        1.0
      ],
      "name": "Legs_3_3"
    },
    {
      "mesh": 1,
      "name": "Object_6"
    },
    {
      "children": [
        8
      ],
      "matrix": [
        0.9474642314713657,
        0.4179683596093484,
        0.0,
        0.0,
        -3.971357938361472,
        9.002402958166886,
        0.0,
        0.0,
        0.0,
        0.0,
        1.0355606079101563,
        0.0,
        4.400000095367432,
        4.400000095367432,
        -1.600000023841858,
        1.0
      ],
      "name": "Legs_2_4"
    },
    {
      "mesh": 2,
      "name": "Object_8"
    },
    {
      "children": [
        10
      ],
      "matrix": [
        0.9474642070941085,
        -0.4179684148685012,
        -0.0,
        0.0,
        3.971358463410486,
        9.002402726544537,
        0.0,
        0.0,
        0.0,
        0.0,
        1.0355606079101563,
        0.0,
        -4.400000095367432,
        4.400000095367432,
        -1.600000023841858,
        1.0
      ],
      "name": "Legs_4_5"
    },
    {
      "mesh": 3,
      "name": "Object_10"
    },
    {
      "children": [
        12
      ],
      "matrix": [
        1.0,
        0.0,
        0.0,
        0.0,
        0.0,
        1.0,
        0.0,
        0.0,
        0.0,
        0.0,
        1.0,
        0.0,
        -0.048442792147397995,
        15.082304000854492,
        0.0,
        1.0
      ],
      "name": "LoadStation_6"
    },
    {
      "mesh": 4,
      "name": "Object_12"
    },
    {
      "children": [
        14
      ],
      "matrix": [
        0.9080327348096867,
        -0.4188992152225176,
        -0.0,
        0.0,
        0.4188992152225176,
        0.9080327348096867,
        0.0,
        0.0,
        0.0,
        0.0,
        1.0,
        0.0,
        -0.38728755712509155,
        12.02071475982666,
        -0.0683315098285675,
        1.0
      ],
      "name": "Ladder_8"
    },
    {
      "mesh": 5,
      "name": "Object_14"
    },
    {
      "children": [
        16
      ],
      "matrix": [
        0.99261139815538,
        -0.1213367720520934,
        -0.0,
        0.0,
        0.1213367720520934,
        0.99261139815538,
        0.0,
        0.0,
        0.0,
        0.0,
        1.0,
        0.0,
        6.7051897048950195,
        12.41282844543457,
        -0.05308482050895691,
        1.0
      ],
      "name": "LadderOpposite_9"
    },
    {
      "mesh": 6,
      "name": "Object_16"
    },
    {
      "children": [
        18
      ],
      "matrix": [
        1.0,
        0.0,
        0.0,
        0.0,
        0.0,
        1.0,
        0.0,
        0.0,
        0.0,
        0.0,
        1.0,
        0.0,
        4.388540267944336,
        2.7366230487823486,
        -0.2681695520877838,
        1.0
      ],
      "name": "Seat_Divider_10"
    },
    {
      "mesh": 7,
      "name": "Object_18"
    },
    {
      "children": [
        20
      ],
      "matrix": [
        0.4394652843475342,
        0.0,
        0.0,
        0.0,
        0.0,
        0.4394652843475342,
        0.0,
        0.0,
        0.0,
        0.0,
        0.4394652843475342,
        0.0,
        -0.4755110740661621,
        5.422450065612793,
        0.0,
        1.0
      ],
      "name": "Post_11"
    },
    {
      "mesh": 8,
      "name": "Object_20"
    },
    {
      "children": [
        22
      ],
      "matrix": [
        0.25076907873153687,
        0.0,
        -0.0,
        0.0,
        -0.0,
        0.0,
        -0.25076907873153687,
        0.0,
        0.0,
        0.25076907873153687,
        0.0,
        0.0,
        -0.11391213536262512,
        11.605053901672363,
        -0.09545884281396866,
        1.0
      ],
      "name": "Flag_12"
    },
    {
      "mesh": 9,
      "name": "Object_22"
    },
    {
      "children": [
        24
      ],
      "matrix": [
        1.0,
        0.0,
        0.0,
        0.0,
        0.0,
        1.0,
        0.0,
        0.0,
        0.0,
        0.0,
        1.0,
        0.0,
        3.675002098083496,
        1.651534080505371,
        0.0,
        1.0
      ],
      "name": "Boat_13"
    },
    {
      "mesh": 10,
      "name": "Object_24"
    },
    {
      "children": [
        26
      ],
      "matrix": [
        2.4620373249053955,
        0.0,
        0.0,
        0.0,
        0.0,
        2.4620373249053955,
        0.0,
        0.0,
        0.0,
        0.0,
        2.4620373249053955,
        0.0,
        -0.44387632608413696,
        4.900479316711426,
        0.0,
        1.0
      ],
      "name": "Flagpole_14"
    },
    {
      "mesh": 11,
      "name": "Object_26"
    },
    {
      "children": [
        28
      ],
      "matrix": [
        0.3577222526073456,
        0.0,
        -0.0,
        0.0,
        -0.0,
        0.0,
        -0.3577222526073456,
        0.0,
        0.0,
        0.3577222526073456,
        0.0,
        0.0,
        -0.048442792147397995,
        14.60441780090332,
        0.0,
        1.0
      ],
      "name": "Bolt_15"
    },
    {
      "mesh": 12,
      "name": "Object_28"
    }
  ],
  "scene": 0,
  "scenes": [
    {
      "name": "Sketchfab_Scene",
      "nodes": [
        0
      ]
    }
  ]
}
