{
  "accessors": [
    {
      "bufferView": 2,
      "componentType": 5126,
      "count": 32,
      "max": [
        0.329671174287796,
        0.0016923875082284212,
        0.5482270121574402
      ],
      "min": [
        -0.329671174287796,
        -0.0016931217396631837,
        -0.5482270121574402
      ],
      "type": "VEC3"
    },
    {
      "bufferView": 2,
      "byteOffset": 384,
      "componentType": 5126,
      "count": 32,
      "max": [
        0.0,
        1.0,
        7.574575688895635e-11
      ],
      "min": [
        0.0,
        -1.0,
        5.049717154842481e-12
      ],
      "type": "VEC3"
    },
    {
      "bufferView": 1,
      "componentType": 5126,
      "count": 32,
      "max": [
        0.9984278678894043,
        0.24924737215042114
      ],
      "min": [
        0.7024179100990295,
        0.003185579553246498
      ],
      "type": "VEC2"
    },
    {
      "bufferView": 1,
      "byteOffset": 256,
      "componentType": 5126,
      "count": 32,
      "max": [
        0.9984278678894043,
        0.24924737215042114
      ],
      "min": [
        0.7024179100990295,
        0.003185579553246498
      ],
      "type": "VEC2"
    },
    {
      "bufferView": 1,
      "byteOffset": 512,
      "componentType": 5126,
      "count": 32,
      "max": [
        0.9984278678894043,
        0.24924737215042114
      ],
      "min": [
        0.7024179100990295,
        0.003185579553246498
      ],
      "type": "VEC2"
    },
    {
      "bufferView": 1,
      "byteOffset": 768,
      "componentType": 5126,
      "count": 32,
      "max": [
        0.9984278678894043,
        0.24924737215042114
      ],
      "min": [
        0.7024179100990295,
        0.003185579553246498
      ],
      "type": "VEC2"
    },
    {
      "bufferView": 1,
      "byteOffset": 1024,
      "componentType": 5126,
      "count": 32,
      "max": [
        0.9984278678894043,
        0.24924737215042114
      ],
      "min": [
        0.7024179100990295,
        0.003185579553246498
      ],
      "type": "VEC2"
    },
    {
      "bufferView": 1,
      "byteOffset": 1280,
      "componentType": 5126,
      "count": 32,
      "max": [
        0.9984278678894043,
        0.24924737215042114
      ],
      "min": [
        0.7024179100990295,
        0.003185579553246498
      ],
      "type": "VEC2"
    },
    {
      "bufferView": 0,
      "componentType": 5125,
      "count": 84,
      "type": "SCALAR"
    },
    {
      "bufferView": 2,
      "byteOffset": 768,
      "componentType": 5126,
      "count": 4060,
      "max": [
        2.7136261463165283,
        2.7136261463165283,
        6.269376754760742
      ],
      "min": [
        -2.7136261463165283,
        -2.7136261463165283,
        -7.121346473693848
      ],
      "type": "VEC3"
    },
    {
      "bufferView": 2,
      "byteOffset": 49488,
      "componentType": 5126,
      "count": 4060,
      "max": [
        1.0,
        1.0,
        1.0
      ],
      "min": [
        -1.0,
        -1.0,
        -1.0
      ],
      "type": "VEC3"
    },
    {
      "bufferView": 1,
      "byteOffset": 1536,
      "componentType": 5126,
      "count": 4060,
      "max": [
        0.9997724890708923,
        0.9958382248878479
      ],
      "min": [
        0.0012607276439666748,
        -0.009908437728881836
      ],
      "type": "VEC2"
    },
    {
      "bufferView": 1,
      "byteOffset": 34016,
      "componentType": 5126,
      "count": 4060,
      "max": [
        0.9997724890708923,
        0.9958382248878479
      ],
      "min": [
        0.0012607276439666748,
        -0.009908437728881836
      ],
      "type": "VEC2"
    },
    {
      "bufferView": 1,
      "byteOffset": 66496,
      "componentType": 5126,
      "count": 4060,
      "max": [
        0.9997724890708923,
        0.9958382248878479
      ],
      "min": [
        0.0012607276439666748,
        -0.009908437728881836
      ],
      "type": "VEC2"
    },
    {
      "bufferView": 1,
      "byteOffset": 98976,
      "componentType": 5126,
      "count": 4060,
      "max": [
        0.9997724890708923,
        0.9958382248878479
      ],
      "min": [
        0.0012607276439666748,
        -0.009908437728881836
      ],
      "type": "VEC2"
    },
    {
      "bufferView": 1,
      "byteOffset": 131456,
      "componentType": 5126,
      "count": 4060,
      "max": [
        0.9997724890708923,
        0.9958382248878479
      ],
      "min": [
        0.0012607276439666748,
        -0.009908437728881836
      ],
      "type": "VEC2"
    },
    {
      "bufferView": 0,
      "byteOffset": 336,
      "componentType": 5125,
      "count": 18678,
      "type": "SCALAR"
    },
    {
      "bufferView": 2,
      "byteOffset": 98208,
      "componentType": 5126,
      "count": 6510,
      "max": [
        2.111943483352661,
        2.1942901611328125,
        4.424867630004883
      ],
      "min": [
        -2.111943483352661,
        -1.9328505992889404,
        0.10863655805587769
      ],
      "type": "VEC3"
    },
    {
      "bufferView": 2,
      "byteOffset": 176328,
      "componentType": 5126,
      "count": 6510,
      "max": [
        0.999911904335022,
        1.0,
        1.0
      ],
      "min": [
        -0.999911904335022,
        -1.0,
        -1.0
      ],
      "type": "VEC3"
    },
    {
      "bufferView": 1,
      "byteOffset": 163936,
      "componentType": 5126,
      "count": 6510,
      "max": [
        0.9973551034927368,
        0.9982115030288696
      ],
      "min": [
        0.004889950156211853,
        0.003551958128809929
      ],
      "type": "VEC2"
    },
    {
      "bufferView": 1,
      "byteOffset": 216016,
      "componentType": 5126,
      "count": 6510,
      "max": [
        0.9973551034927368,
        0.9982115030288696
      ],
      "min": [
        0.004889950156211853,
        0.003551958128809929
      ],
      "type": "VEC2"
    },
    {
      "bufferView": 1,
      "byteOffset": 268096,
      "componentType": 5126,
      "count": 6510,
      "max": [
        0.9973551034927368,
        0.9982115030288696
      ],
      "min": [
        0.004889950156211853,
        0.003551958128809929
      ],
      "type": "VEC2"
    },
    {
      "bufferView": 1,
      "byteOffset": 320176,
      "componentType": 5126,
      "count": 6510,
      "max": [
        0.9973551034927368,
        0.9982115030288696
      ],
      "min": [
        0.004889950156211853,
        0.003551958128809929
      ],
      "type": "VEC2"
    },
    {
      "bufferView": 1,
      "byteOffset": 372256,
      "componentType": 5126,
      "count": 6510,
      "max": [
        0.9973551034927368,
        0.9982115030288696
      ],
      "min": [
        0.004889950156211853,
        0.003551958128809929
      ],
      "type": "VEC2"
    },
    {
      "bufferView": 1,
      "byteOffset": 424336,
      "componentType": 5126,
      "count": 6510,
      "max": [
        0.9973551034927368,
        0.9982115030288696
      ],
      "min": [
        0.004889950156211853,
        0.003551958128809929
      ],
      "type": "VEC2"
    },
    {
      "bufferView": 0,
      "byteOffset": 75048,
      "componentType": 5125,
      "count": 35244,
      "type": "SCALAR"
    },
    {
      "bufferView": 2,
      "byteOffset": 254448,
      "componentType": 5126,
      "count": 504,
      "max": [
        2.224128246307373,
        1.9538154602050781,
        5.549758434295654
      ],
      "min": [
        -2.224128246307373,
        -2.224128246307373,
        0.18798163533210754
      ],
      "type": "VEC3"
    },
    {
      "bufferView": 2,
      "byteOffset": 260496,
      "componentType": 5126,
      "count": 504,
      "max": [
        1.0,
        1.0,
        1.0
      ],
      "min": [
        -1.0,
        -1.0,
        -1.0
      ],
      "type": "VEC3"
    },
    {
      "bufferView": 1,
      "byteOffset": 476416,
      "componentType": 5126,
      "count": 504,
      "max": [
        0.9933688640594482,
        0.9998719692230225
      ],
      "min": [
        0.00012798862007912248,
        0.00012798862007912248
      ],
      "type": "VEC2"
    },
    {
      "bufferView": 1,
      "byteOffset": 480448,
      "componentType": 5126,
      "count": 504,
      "max": [
        0.9933688640594482,
        0.9998719692230225
      ],
      "min": [
        0.00012798862007912248,
        0.00012798862007912248
      ],
      "type": "VEC2"
    },
    {
      "bufferView": 1,
      "byteOffset": 484480,
      "componentType": 5126,
      "count": 504,
      "max": [
        0.9933688640594482,
        0.9998719692230225
      ],
      "min": [
        0.00012798862007912248,
        0.00012798862007912248
      ],
      "type": "VEC2"
    },
    {
      "bufferView": 1,
      "byteOffset": 488512,
      "componentType": 5126,
      "count": 504,
      "max": [
        0.9933688640594482,
        0.9998719692230225
      ],
      "min": [
        0.00012798862007912248,
        0.00012798862007912248
      ],
      "type": "VEC2"
    },
    {
      "bufferView": 1,
      "byteOffset": 492544,
      "componentType": 5126,
      "count": 504,
      "max": [
        0.9933688640594482,
        0.9998719692230225
      ],
      "min": [
        0.00012798862007912248,
        0.00012798862007912248
      ],
      "type": "VEC2"
    },
    {
      "bufferView": 1,
      "byteOffset": 496576,
      "componentType": 5126,
      "count": 504,
      "max": [
        0.9933688640594482,
        0.9998719692230225
      ],
      "min": [
        0.00012798862007912248,
        0.00012798862007912248
      ],
      "type": "VEC2"
    },
    {
      "bufferView": 0,
      "byteOffset": 216024,
      "componentType": 5125,
      "count": 2328,
      "type": "SCALAR"
    }
  ],
  "asset": {
    "extras": {
      "author": "Dawn7 (https://sketchfab.com/Dawn7)",
      "license": "CC-BY-4.0 (http://creativecommons.org/licenses/by/4.0/)",
      "source": "https://sketchfab.com/3d-models/themepark-5eb933cc90924ce4a071b50b01ebe198",
      "title": "themepark"
    },
    "generator": "Sketchfab-15.19.0",
    "version": "2.0"
  },
  "bufferViews": [
    {
      "buffer": 0,
      "byteLength": 225336,
      "name": "floatBufferViews",
      "target": 34963
    },
    {
      "buffer": 0,
      "byteLength": 500608,
      "byteOffset": 225336,
      "byteStride": 8,
      "name": "floatBufferViews",
      "target": 34962
    },
    {
      "buffer": 0,
      "byteLength": 266544,
      "byteOffset": 725944,
      "byteStride": 12,
      "name": "floatBufferViews",
      "target": 34962
    }
  ],
  "buffers": [
    {
      "byteLength": 992488,
      "uri": "scene.bin"
    }
  ],
  "extensionsUsed": [
    "KHR_materials_unlit"
  ],
  "images": [
    {
      "uri": "textures/Fortune_baseColor.jpeg"
    },
    {
      "uri": "textures/Cabinet_baseColor.jpeg"
    },
    {
      "uri": "textures/Glass_baseColor.png"
    },
    {
      "uri": "textures/Glass_emissive.jpeg"
    }
  ],
  "materials": [
    {
      "doubleSided": true,
      "extensions": {
        "KHR_materials_unlit": {}
      },
      "name": "Fortune",
      "pbrMetallicRoughness": {
        "baseColorTexture": {
          "index": 0
        },
        "metallicFactor": 0.0
      }
    },
    {
      "doubleSided": true,
      "extensions": {
        "KHR_materials_unlit": {}
      },
      "name": "Cabinet",
      "pbrMetallicRoughness": {
        "baseColorTexture": {
          "index": 1
        },
        "metallicFactor": 0.0
      }
    },
    {
      "alphaMode": "BLEND",
      "doubleSided": true,
      "emissiveFactor": [
        1.0,
        1.0,
        1.0
      ],
      "emissiveTexture": {
        "index": 3
      },
      "extensions": {
        "KHR_materials_unlit": {}
      },
      "name": "Glass",
      "pbrMetallicRoughness": {
        "baseColorTexture": {
          "index": 2
        },
        "metallicFactor": 0.0
      }
    }
  ],
  "meshes": [
    {
      "name": "Object_0",
      "primitives": [
        {
          "attributes": {
            "NORMAL": 1,
            "POSITION": 0,
            "TEXCOORD_0": 2,
            "TEXCOORD_1": 3,
            "TEXCOORD_2": 4,
            "TEXCOORD_3": 5,
            "TEXCOORD_4": 6,
            "TEXCOORD_5": 7
          },
          "indices": 8,
          "material": 0,
          "mode": 4
        }
      ]
    },
    {
      "name": "Object_1",
      "primitives": [
        {
          "attributes": {
            "NORMAL": 10,
            "POSITION": 9,
            "TEXCOORD_0": 11,
            "TEXCOORD_1": 12,
            "TEXCOORD_2": 13,
            "TEXCOORD_3": 14,
            "TEXCOORD_4": 15
          },
          "indices": 16,
          "material": 1,
          "mode": 4
        }
      ]
    },
    {
      "name": "Object_2",
      "primitives": [
        {
          "attributes": {
            "NORMAL": 18,
            "POSITION": 17,
            "TEXCOORD_0": 19,
            "TEXCOORD_1": 20,
            "TEXCOORD_2": 21,
            "TEXCOORD_3": 22,
            "TEXCOORD_4": 23,
            "TEXCOORD_5": 24
          },
          "indices": 25,
          "material": 0,
          "mode": 4
        }
      ]
    },
    {
      "name": "Object_3",
      "primitives": [
        {
          "attributes": {
            "NORMAL": 27,
            "POSITION": 26,
            "TEXCOORD_0": 28,
            "TEXCOORD_1": 29,
            "TEXCOORD_2": 30,
            "TEXCOORD_3": 31,
            "TEXCOORD_4": 32,
            "TEXCOORD_5": 33
          },
          "indices": 34,
          "material": 2,
          "mode": 4
        }
      ]
    }
  ],
  "nodes": [
    {
      "children": [
        1
      ],
      "matrix": [
        -1.3326492410909926e-05,
        4.816278221736659e-19,
        -0.0012579543857887954,
        0.0,
        -0.0012579543857887954,
        -2.0526491330989933e-19,
        1.3326492410909926e-05,
        0.0,
        -2.0015143391124065e-19,
        0.0012580249458551407,
        4.83775199605224e-19,
        0.0,
        0.0,
        0.0,
        0.0,
        1.0
      ],
      "name": "Sketchfab_model"
    },
    {
      "children": [
        2
      ],
      "name": "root"
    },
    {
      "children": [
        3
      ],
      "matrix": [
        1.0,
        0.0,
        0.0,
        0.0,
        0.0,
        2.220446049250313e-16,
        1.0,
        0.0,
        0.0,
        -1.0,
        2.220446049250313e-16,
        0.0,
        0.0,
        0.0,
        0.0,
        1.0
      ],
      "name": "GLTF_SceneRootNode"
    },
    {
      "children": [
        4
      ],
      "matrix": [
        0.9967336058616638,
        0.06044303625822067,
        -0.053561195731163025,
        0.0,
        -0.04702302813529968,
        -0.10484255105257034,
        -0.9933764934539795,
        0.0,
        -0.06565818190574646,
        0.9926503300666809,
        -0.10165787488222122,
        0.0,
        43.39549255371094,
        4.857633113861084,
        67.18867492675781,
        1.0
      ],
      "name": "Sketchfab_model_0"
    },
    {
      "children": [
        5
      ],
      "matrix": [
        1.0,
        0.0,
        0.0,
        0.0,
        0.0,
        0.0,
        1.0,
        0.0,
        0.0,
        -1.0,
        0.0,
        0.0,
        0.0,
        0.0,
        0.0,
        1.0
      ],
      "name": "Zoltar.fbx_1"
    },
    {
      "children": [
        6,
        9
      ],
      "name": "RootNode_2"
    },
    {
      "children": [
        7
      ],
      "matrix": [
        99.98348236083984,
        1.4125950542620558e-07,
        -1.8180817365646362,
        0.0,
        -1.8158093690872192,
        4.99791955947876,
        -99.85851287841797,
        0.0,
        0.09086611866950989,
        99.8750228881836,
        4.997093677520752,
        0.0,
        -1.2930728197097778,
        836.8018798828125,
        96.97246551513672,
        1.0
      ],
      "name": "Card_3"
    },
    {
      "children": [
        8
      ],
      "name": "Card_Fortune_0_4"
    },
    {
      "mesh": 0,
      "name": "Object_8"
    },
    {
      "children": [
        10,
        12,
        14
      ],
      "matrix": [
        100.0,
        0.0,
        0.0,
        0.0,
        0.0,
        -1.6292067812173627e-05,
        -100.0,
        0.0,
        0.0,
        100.0,
        -1.6292067812173627e-05,
        0.0,
        0.0,
        703.5286254882813,
        0.0,
        1.0
      ],
      "name": "Zoltar_5"
    },
    {
      "children": [
        11
      ],
      "name": "Zoltar_Cabinet_0_6"
    },
    {
      "mesh": 1,
      "name": "Object_11"
    },
    {
      "children": [
        13
      ],
      "name": "Zoltar_Fortune_0_7"
    },
    {
      "mesh": 2,
      "name": "Object_13"
    },
    {
      "children": [
        15
      ],
      "name": "Zoltar_Glass_0_8"
    },
    {
      "mesh": 3,
      "name": "Object_15"
    }
  ],
  "samplers": [
    {
      "magFilter": 9729,
      "minFilter": 9987,
      "wrapS": 10497,
      "wrapT": 10497
    }
  ],
  "scene": 0,
  "scenes": [
    {
      "name": "Sketchfab_Scene",
      "nodes": [
        0
      ]
    }
  ],
  "textures": [
    {
      "sampler": 0,
      "source": 0
    },
    {
      "sampler": 0,
      "source": 1
    },
    {
      "sampler": 0,
      "source": 2
    },
    {
      "sampler": 0,
      "source": 3
    }
  ]
}
